<?xml version="1.0" encoding="UTF-8" standalone="no"?>
<!-- Created with Inkscape (http://www.inkscape.org/) -->

<svg
   width="44.52832mm"
   height="16.874529mm"
   viewBox="0 0 44.52832 16.874529"
   version="1.1"
   id="svg1"
   xmlns="http://www.w3.org/2000/svg"
   xmlns:svg="http://www.w3.org/2000/svg">
  <defs
     id="defs1" />
  <g
     id="layer1"
     transform="translate(-45.42866,-66.124849)">
    <path
       style="font-size:28.2222px;font-family:Afacad;-inkscape-font-specification:Afacad;fill:#fd542d;stroke-width:0.265"
       d="m 51.85705,82.999371 q -1.842283,0 -3.312189,-0.823147 -1.450307,-0.823148 -2.293054,-2.234258 -0.823147,-1.430709 -0.823147,-3.174997 0,-1.665894 0.803549,-3.018208 0.803548,-1.371912 2.155862,-2.175461 1.371913,-0.803549 3.018208,-0.803549 1.626696,0 2.97901,0.78395 1.352314,0.764351 2.155862,2.077468 0.803549,1.313116 0.803549,2.97901 v 0.862345 h -7.68271 q -0.509568,0 -1.038734,-0.0392 -0.529166,-0.0392 -1.038734,-0.117592 0.215587,1.5679 1.41111,2.626232 1.215123,1.058333 2.881017,1.058333 1.117129,0 2.077467,-0.509568 0.960339,-0.509567 1.548302,-1.352314 l 0.587962,2.410647 q -0.842746,0.685956 -1.940276,1.077931 -1.077931,0.372376 -2.293054,0.372376 z m -4.331324,-7.114346 q 1.058333,-0.176389 2.136264,-0.176389 h 3.900151 q 0.431173,0 0.842747,0.0392 0.431172,0.0196 0.862345,0.0588 -0.274383,-1.371913 -1.371913,-2.253856 -1.09753,-0.901543 -2.489041,-0.901543 -1.430709,0 -2.50864,0.960339 -1.077932,0.94074 -1.371913,2.273455 z m 15.678995,7.114346 q -0.901543,0 -1.940277,-0.333178 -1.019135,-0.352778 -1.763887,-1.156327 l 0.587962,-2.312652 q 0.548765,0.921141 1.41111,1.469906 0.862345,0.529166 1.842283,0.529166 0.94074,0 1.41111,-0.450771 0.47037,-0.47037 0.47037,-1.136728 0,-0.764351 -0.509568,-1.117128 -0.489968,-0.352778 -0.881943,-0.489969 l -1.587499,-0.607561 q -0.431173,-0.176389 -1.038734,-0.509568 -0.607561,-0.352777 -1.058333,-0.999536 -0.450771,-0.646759 -0.450771,-1.685493 0,-0.94074 0.450771,-1.72469 0.450772,-0.78395 1.273919,-1.234721 0.823148,-0.47037 1.940277,-0.47037 0.881943,0 1.842282,0.31358 0.960339,0.31358 1.626696,1.058333 l -0.587962,2.312652 q -0.47037,-0.862345 -1.273919,-1.371912 -0.803549,-0.509568 -1.665894,-0.509568 -0.803548,0 -1.273919,0.450771 -0.450771,0.450772 -0.450771,1.038734 0,0.47037 0.31358,0.842746 0.31358,0.372377 0.94074,0.607562 l 1.587499,0.607561 q 0.431173,0.15679 1.058333,0.509567 0.646758,0.352778 1.136727,1.019135 0.489969,0.666358 0.489969,1.803085 0,1.587499 -1.117129,2.567437 -1.09753,0.979937 -2.783022,0.979937 z m 8.329451,-0.235185 v -9.995362 h -2.66543 v -1.763888 h 2.724226 v -3.91975 h 1.999073 v 3.91975 h 2.920213 v 1.763888 h -2.861417 v 9.995362 z m 12.2296,0.235185 q -1.705092,0 -3.116202,-0.823147 -1.41111,-0.823148 -2.253856,-2.214659 -0.823147,-1.391511 -0.823147,-3.077004 0,-1.705091 0.823147,-3.077004 0.842746,-1.391511 2.253856,-2.214658 1.41111,-0.823148 3.116202,-0.823148 1.72469,0 3.116201,0.823148 1.41111,0.823147 2.234258,2.214658 0.842746,1.371913 0.842746,3.077004 0,1.685493 -0.842746,3.077004 -0.823148,1.391511 -2.234258,2.214659 -1.391511,0.823147 -3.116201,0.823147 z m 0,-1.999072 q 1.136727,0 2.057869,-0.548765 0.921141,-0.568364 1.469906,-1.489505 0.548765,-0.94074 0.548765,-2.077468 0,-1.136727 -0.548765,-2.057869 -0.548765,-0.94074 -1.469906,-1.489505 -0.921142,-0.568363 -2.057869,-0.568363 -1.136728,0 -2.057869,0.568363 -0.921141,0.548765 -1.469906,1.489505 -0.548765,0.921142 -0.548765,2.057869 0,1.136728 0.548765,2.077468 0.548765,0.921141 1.469906,1.489505 0.921141,0.548765 2.057869,0.548765 z m -2.35185,-12.170824 q -0.548765,0 -0.960339,-0.391975 -0.391975,-0.411574 -0.391975,-0.960339 0,-0.568364 0.391975,-0.960339 0.411574,-0.391975 0.960339,-0.391975 0.568363,0 0.960338,0.391975 0.391975,0.391975 0.391975,0.960339 0,0.548765 -0.391975,0.960339 -0.391975,0.391975 -0.960338,0.391975 z m 4.7037,0 q -0.548765,0 -0.960339,-0.391975 -0.391975,-0.411574 -0.391975,-0.960339 0,-0.568364 0.391975,-0.960339 0.411574,-0.391975 0.960339,-0.391975 0.568364,0 0.960339,0.391975 0.391975,0.391975 0.391975,0.960339 0,0.548765 -0.391975,0.960339 -0.391975,0.391975 -0.960339,0.391975 z"
       id="text1"
       aria-label="estö" />
  </g>
</svg>
